# xmcd
#
# Track frame offsets: 
#        150
#        23294
#        45757
#        68338
#        93409
#        111333
#        134709
#        158998
#        187301
#
# Disc length: 2842 seconds
#
# Revision: 0
# Processed by: cddbd v1.5.2PL0 Copyright (c) Steve Scherf et al.
# Submitted via: ExactAudioCopyFreeDBPlugin 1.0
#
DISCID=6f0b1809
DTITLE=Stefan Waggershausen - Aus der Zeit gefallen
DYEAR=2019
DGENRE=Blues
TTITLE0=Stefan Waggershausen  - Die Drinks sind getrunken
TTITLE1=Stefan Waggershausen  - Ich kenn mich aus mit dem Blues
TTITLE2=Mädchen der besonderen Art
TTITLE3=Hank Williams
TTITLE4=Du bist zu schön für mich
TTITLE5=Etwas Gutes wird kommen
TTITLE6=Du das wär nur heut Nacht
TTITLE7=Backstreet Girl
TTITLE8=Belladonna
EXTD=
EXTT0=
EXTT1=
EXTT2=
EXTT3=
EXTT4=
EXTT5=
EXTT6=
EXTT7=
EXTT8=
PLAYORDER=
